<svg width="1853" height="605" viewBox="0 0 1853 605" fill="none" xmlns="http://www.w3.org/2000/svg">
<path d="M136.442 94.6616C143.75 101.392 149.134 109.469 152.596 118.892C156.057 128.123 157.403 137.354 156.634 146.585C155.865 155.431 153.076 163.604 148.269 171.104C143.461 178.411 136.153 183.988 126.346 187.834C118.654 191.104 111.057 193.411 103.557 194.757C96.0574 196.104 87.7882 197.161 78.7498 197.931C74.7113 198.315 71.2498 198.604 68.3652 198.796C65.6729 198.796 62.4998 198.892 58.846 199.084C58.0768 199.084 56.7306 199.084 54.8075 199.084C53.0768 199.084 51.8268 199.181 51.0575 199.373V259.084C50.4806 262.738 49.7114 266.488 48.7499 270.334C47.9806 274.18 45.7691 277.161 42.1153 279.276C39.9999 280.43 37.4037 281.103 34.3268 281.296C31.2499 281.488 28.4615 281.392 25.9615 281.007C23.2692 280.623 20.9615 279.95 19.0384 278.988C17.3076 277.834 15.8653 275.911 14.7115 273.219C13.9423 271.488 13.173 269.565 12.4038 267.45C11.8269 265.142 11.5384 262.353 11.5384 259.084V99.5654C11.5384 98.2193 11.6346 96.9693 11.8269 95.8154C12.0192 94.6616 12.2115 93.5078 12.4038 92.3539C12.7884 91.3924 13.0769 90.3347 13.2692 89.1808C13.4615 88.027 13.75 86.9693 14.1346 86.0078C14.5192 85.0462 14.9038 84.1809 15.2884 83.4116C15.8653 82.6424 16.5384 81.9693 17.3076 81.3924C18.2692 80.4309 19.7115 79.5655 21.6346 78.7963C23.7499 78.027 26.8268 77.6424 30.8653 77.6424H31.4422C37.4037 77.2578 44.0383 76.9693 51.346 76.777C58.6537 76.3924 64.7114 76.4886 69.519 77.0655C72.2113 77.4501 74.7113 77.7386 77.019 77.9309C79.3267 77.9309 81.5382 78.027 83.6536 78.2193C85.9613 78.4116 88.269 78.6039 90.5767 78.7963C92.8843 78.9886 95.192 79.277 97.4997 79.6616C99.4228 80.0462 101.154 80.3347 102.692 80.527C104.423 80.7193 106.154 81.0078 107.884 81.3924C109.423 81.777 111.057 82.1616 112.788 82.5462C114.711 82.9309 116.442 83.6039 117.98 84.5655C122.019 85.7193 125.384 87.1616 128.077 88.8924C130.769 90.6231 133.557 92.5462 136.442 94.6616ZM119.134 142.258C119.327 137.642 118.365 133.604 116.25 130.142C114.327 126.681 111.538 123.796 107.884 121.488C104.23 119.181 100.096 117.354 95.4805 116.008C90.8651 114.662 86.2498 113.7 81.6344 113.123C80.4805 113.123 78.8459 113.123 76.7305 113.123C74.8075 112.931 72.6921 112.835 70.3844 112.835C68.0767 112.642 65.8652 112.546 63.7498 112.546C61.8267 112.354 60.2883 112.258 59.1344 112.258C58.1729 112.065 57.0191 111.969 55.6729 111.969C54.3268 111.969 52.7883 111.969 51.0575 111.969C51.2499 117.931 51.346 123.7 51.346 129.277C51.346 134.661 51.346 140.527 51.346 146.873C51.1537 150.335 51.0575 153.796 51.0575 157.258C51.0575 160.719 51.0575 164.084 51.0575 167.354L68.9421 167.065C73.5575 167.065 78.6536 166.777 84.2305 166.2C89.8074 165.623 95.0959 164.469 100.096 162.738C105.096 161.008 109.327 158.508 112.788 155.238C116.442 151.969 118.557 147.642 119.134 142.258ZM884.441 174.277C890.018 177.931 894.729 182.257 898.575 187.257C902.614 192.065 905.787 198.027 908.095 205.142C910.595 213.027 911.845 221.007 911.845 229.084C912.037 236.969 910.595 244.373 907.518 251.296C904.633 258.027 899.922 263.988 893.383 269.18C887.037 274.18 878.672 277.738 868.287 279.853C862.71 281.2 856.172 282.257 848.672 283.026C841.172 283.796 834.441 284.18 828.479 284.18C820.979 284.373 813.191 284.373 805.114 284.18C797.23 284.18 789.537 283.411 782.037 281.873C778.768 280.911 776.364 279.276 774.826 276.969C773.48 274.469 772.518 271.68 771.941 268.603C771.172 266.873 770.787 265.142 770.787 263.411V99.5654C770.787 94.1808 771.845 90.0462 773.96 87.1616C776.268 84.0847 779.249 81.8732 782.903 80.527C786.556 78.9886 790.691 78.1232 795.306 77.9309C799.922 77.5463 804.729 77.3539 809.729 77.3539C813.576 77.3539 817.422 77.3539 821.268 77.3539C825.306 77.1616 829.345 77.1616 833.383 77.3539C839.729 77.5463 846.268 78.1232 852.999 79.0847C859.922 79.8539 866.46 81.3924 872.614 83.7001C875.499 84.6616 878.575 86.0078 881.845 87.7385C885.114 89.277 887.71 91.2001 889.633 93.5077C895.787 99.0847 900.306 105.623 903.191 113.123C906.268 120.431 907.614 127.931 907.229 135.623C906.845 143.123 904.729 150.335 900.883 157.258C897.229 164.181 891.748 169.854 884.441 174.277ZM833.96 250.719C839.922 250.334 845.979 249.661 852.133 248.7C858.287 247.738 862.518 245.911 864.825 243.219C867.325 240.142 869.056 236.584 870.018 232.546C871.172 228.315 871.46 224.084 870.883 219.854C870.499 215.43 869.249 211.296 867.133 207.45C865.21 203.411 862.614 200.238 859.345 197.931C854.922 194.469 849.825 192.257 844.056 191.296C838.287 190.142 832.614 189.565 827.037 189.565C824.345 189.565 821.845 189.661 819.537 189.854C817.422 189.854 815.499 190.142 813.768 190.719C812.229 191.104 811.076 191.969 810.306 193.315C809.537 194.661 809.153 196.681 809.153 199.373C809.537 204.373 809.537 209.373 809.153 214.373C808.768 219.373 808.576 224.18 808.576 228.796C808.576 231.488 808.479 234.469 808.287 237.738C808.287 240.815 809.345 243.411 811.46 245.527C813.576 247.642 816.653 249.084 820.691 249.853C824.729 250.623 829.152 250.911 833.96 250.719ZM839.729 112.258C833.768 112.065 828.768 111.969 824.729 111.969C820.883 111.777 817.806 112.065 815.499 112.835C813.383 113.412 811.845 114.854 810.883 117.162C810.114 119.277 809.826 122.546 810.018 126.969C810.018 130.623 809.922 134.277 809.729 137.931C809.729 141.392 809.729 144.854 809.729 148.315C809.729 152.161 810.979 155.046 813.479 156.969C815.979 158.7 819.056 159.758 822.71 160.142C826.556 160.527 830.499 160.527 834.537 160.142C838.768 159.758 842.422 159.277 845.499 158.7C852.422 157.546 857.71 155.238 861.364 151.777C865.21 148.123 867.422 142.835 867.999 135.911C868.768 127.258 866.46 121.296 861.075 118.027C855.883 114.565 848.768 112.642 839.729 112.258ZM160.961 470.777C161.923 473.469 162.596 476.546 162.98 480.007C163.557 483.277 163.846 486.642 163.846 490.104C163.846 493.565 163.557 497.027 162.98 500.488C162.596 503.757 162.019 506.642 161.25 509.142C158.173 519.911 152.019 528.95 142.788 536.257C133.557 543.373 122.98 548.565 111.057 551.834C99.3266 555.103 87.1151 556.257 74.4229 555.296C61.9229 554.334 50.7691 551.161 40.9614 545.776C34.8076 542.315 29.5191 538.084 25.0961 533.084C20.673 528.084 16.923 522.507 13.8461 516.353C12.6923 514.238 11.923 511.834 11.5384 509.142C11.3461 506.257 11.6346 503.565 12.4038 501.065C13.173 498.373 14.423 496.065 16.1538 494.142C17.8846 492.027 20.2884 490.584 23.3653 489.815C25.2884 489.43 27.4038 489.238 29.7115 489.238C32.2114 489.238 34.6153 489.623 36.923 490.392C39.2307 490.969 41.346 492.027 43.2691 493.565C45.1922 494.911 46.7306 496.834 47.8845 499.334C49.9999 503.373 52.9806 507.123 56.8268 510.584C60.8652 513.853 65.096 516.546 69.519 518.661C75.8652 520.777 82.2113 521.642 88.5574 521.257C95.0959 520.873 100.961 519.43 106.154 516.93C111.538 514.43 115.865 511.065 119.134 506.834C122.403 502.411 124.038 497.411 124.038 491.834C124.038 487.219 123.365 483.469 122.019 480.584C120.673 477.507 118.75 475.007 116.25 473.084C113.942 470.969 111.057 469.238 107.596 467.892C104.327 466.546 100.673 465.392 96.6343 464.431C92.019 463.469 87.3074 462.796 82.4998 462.411C77.8844 462.027 73.1729 461.546 68.3652 460.969C63.5575 460.392 58.846 459.623 54.2306 458.661C49.6152 457.7 45.096 456.257 40.673 454.334C31.8268 450.681 25.0961 445.104 20.4807 437.604C15.8653 430.104 13.0769 422.027 12.1154 413.373C11.3461 404.719 12.4038 396.162 15.2884 387.7C18.173 379.046 22.7884 371.642 29.1345 365.489C35.2884 359.912 42.596 355.969 51.0575 353.662C59.7114 351.162 69.2306 349.719 79.6152 349.335C85.3844 349.142 91.1536 349.335 96.9228 349.912C102.884 350.489 108.557 351.45 113.942 352.796C119.519 354.142 124.615 355.873 129.23 357.989C134.038 360.104 138.173 362.604 141.634 365.489C144.134 367.412 146.634 370.008 149.134 373.277C151.634 376.354 153.557 379.719 154.903 383.373C156.25 386.835 156.634 390.2 156.057 393.469C155.673 396.738 153.653 399.527 150 401.835C146.923 403.758 143.942 404.623 141.057 404.431C138.365 404.046 135.769 403.181 133.269 401.835C130.769 400.296 128.365 398.565 126.057 396.642C123.75 394.719 121.634 392.988 119.711 391.45C114.519 387.604 108.077 385.008 100.384 383.662C92.692 382.315 85.4805 382.027 78.7498 382.796C74.519 383.373 70.5767 384.335 66.9229 385.681C63.269 387.027 60.096 388.854 57.4037 391.162C54.9037 393.469 52.8845 396.354 51.346 399.815C49.9999 403.085 49.5191 406.835 49.9037 411.065C50.096 414.142 50.9614 416.738 52.4998 418.854C54.2306 420.969 56.2498 422.7 58.5575 424.046C61.0575 425.392 63.7498 426.45 66.6344 427.219C69.519 427.988 72.4036 428.565 75.2882 428.95C83.9421 430.104 92.5959 430.969 101.25 431.546C109.904 432.123 118.365 434.046 126.634 437.315C135.096 440.584 142.307 445.008 148.269 450.584C154.23 456.161 158.461 462.892 160.961 470.777Z" fill="#FF7B00"/>
<path d="M180.797 159.277C186.566 156.392 192.624 154.373 198.97 153.219C205.316 151.873 211.566 151.585 217.72 152.354C224.066 152.931 230.124 154.565 235.893 157.258C241.662 159.758 247.047 163.411 252.047 168.219C257.047 173.219 260.893 178.7 263.585 184.661C266.278 190.623 268.201 197.257 269.355 204.565C270.124 209.565 271.374 214.18 273.105 218.411C274.835 222.642 276.662 226.873 278.585 231.104C280.701 235.334 282.624 239.565 284.355 243.796C286.278 248.027 287.816 252.45 288.97 257.065C289.932 261.488 289.547 265.815 287.816 270.046C286.278 274.084 283.009 276.584 278.009 277.546C275.124 278.123 272.335 277.93 269.643 276.969C267.143 275.815 264.835 274.276 262.72 272.353C260.605 270.238 258.682 268.026 256.951 265.719C255.412 263.219 253.97 260.911 252.624 258.796C248.201 264.565 243.393 269.084 238.201 272.353C233.009 275.43 226.759 277.45 219.451 278.411C213.297 279.18 207.432 279.373 201.855 278.988C196.278 278.603 190.316 277.546 183.97 275.815C175.701 273.7 168.874 270.046 163.49 264.853C158.297 259.469 154.259 253.315 151.374 246.392C148.682 239.277 147.24 231.68 147.047 223.604C146.855 215.527 147.817 207.546 149.932 199.661C152.624 189.277 156.663 180.815 162.047 174.277C167.432 167.738 173.682 162.738 180.797 159.277ZM188.009 193.027C185.316 195.719 183.201 198.892 181.663 202.546C180.124 206.2 179.163 210.046 178.778 214.084C178.586 218.123 178.97 222.161 179.932 226.2C180.893 230.238 182.432 233.796 184.547 236.873C186.47 239.565 189.74 241.873 194.355 243.796C198.97 245.527 203.778 246.584 208.778 246.969C214.547 247.353 219.547 245.815 223.778 242.353C228.201 238.892 231.47 234.565 233.586 229.373C235.893 223.988 236.951 218.315 236.759 212.354C236.566 206.2 234.932 200.623 231.855 195.623C229.547 191.969 226.47 189.277 222.624 187.546C218.97 185.815 215.028 184.95 210.797 184.95C206.566 184.757 202.336 185.431 198.105 186.969C194.066 188.315 190.701 190.334 188.009 193.027ZM382.199 150.911C387.776 153.219 392.872 156.584 397.488 161.008C402.103 165.238 406.045 170.142 409.314 175.719C412.776 181.296 415.372 187.354 417.103 193.892C419.026 200.238 419.988 206.681 419.988 213.219C420.18 223.027 417.872 232.257 413.064 240.911C408.449 249.565 400.853 256.2 390.276 260.815C382.199 264.084 373.834 266.584 365.18 268.315C356.718 269.853 347.872 270.911 338.642 271.488V324.276C338.642 325.43 338.449 326.488 338.065 327.449C337.872 328.411 337.776 329.372 337.776 330.334C337.392 332.257 336.911 333.988 336.334 335.526C335.949 337.065 335.372 338.699 334.603 340.43C333.834 341.584 333.065 342.642 332.295 343.603C331.526 344.565 330.661 345.526 329.699 346.488C325.084 348.795 320.276 349.276 315.276 347.93C312.199 347.738 309.699 346.776 307.776 345.045C306.046 343.315 304.796 341.488 304.026 339.565C303.257 337.642 302.584 335.43 302.007 332.93C301.815 331.969 301.622 331.007 301.43 330.046C301.43 329.276 301.43 328.411 301.43 327.449V166.777C301.43 165.623 301.43 164.469 301.43 163.315C301.622 161.969 301.815 160.623 302.007 159.277C302.199 156.969 302.776 154.661 303.738 152.354C305.469 147.546 309.026 144.277 314.411 142.546C319.795 140.815 325.853 140.046 332.584 140.238C337.199 140.431 341.911 140.911 346.718 141.681C351.718 142.45 356.43 143.411 360.853 144.565C365.468 145.527 369.603 146.585 373.257 147.738C376.911 148.892 379.891 149.95 382.199 150.911ZM382.776 213.219C383.545 207.834 382.872 203.315 380.757 199.661C378.834 195.815 376.045 192.738 372.391 190.431C368.738 187.931 364.507 186.007 359.699 184.661C355.084 183.315 350.468 182.354 345.853 181.777C345.276 181.584 344.315 181.488 342.968 181.488C341.815 181.488 340.468 181.488 338.93 181.488C338.93 187.642 338.93 193.604 338.93 199.373C339.122 204.95 339.122 211.007 338.93 217.546V236.873C343.353 236.68 347.968 236.2 352.776 235.43C357.776 234.661 362.392 233.411 366.622 231.68C370.853 229.95 374.411 227.642 377.295 224.757C380.372 221.873 382.199 218.027 382.776 213.219ZM531.676 241.2C533.984 240.623 536.291 240.238 538.599 240.046C541.099 239.853 543.31 240.142 545.234 240.911C547.349 241.68 549.08 243.027 550.426 244.95C551.772 246.68 552.445 249.18 552.445 252.45C552.445 254.757 551.868 256.969 550.714 259.084C549.56 261.2 548.118 263.123 546.387 264.853C544.657 266.584 542.734 268.123 540.618 269.469C538.503 270.623 536.484 271.584 534.56 272.353C528.984 274.853 522.541 276.776 515.234 278.123C508.118 279.469 500.714 279.95 493.022 279.565C482.638 279.18 472.638 277.161 463.022 273.507C453.599 269.661 446.195 263.411 440.811 254.757C435.811 246.296 432.83 236.873 431.868 226.488C430.907 216.104 431.388 206.296 433.311 197.065C435.426 185.911 438.984 176.873 443.984 169.95C449.176 162.834 455.33 157.161 462.445 152.931C471.099 147.931 480.811 145.335 491.58 145.142C502.349 144.95 512.637 147.065 522.445 151.488C528.984 154.373 534.849 158.315 540.041 163.315C545.234 168.123 549.176 173.988 551.868 180.911C552.637 182.642 553.214 184.757 553.599 187.257C554.176 189.757 554.56 192.45 554.753 195.334C554.945 198.027 554.945 200.719 554.753 203.411C554.56 206.104 554.08 208.507 553.31 210.623C552.157 214.084 550.714 216.777 548.984 218.7C547.253 220.623 545.041 222.065 542.349 223.027C539.657 223.988 536.387 224.661 532.541 225.046C528.887 225.238 524.464 225.43 519.272 225.623C514.657 225.815 510.33 225.911 506.291 225.911C502.253 225.911 498.118 225.911 493.888 225.911C489.657 225.719 485.234 225.623 480.618 225.623C476.195 225.43 471.195 225.238 465.618 225.046C465.041 228.892 465.522 232.257 467.061 235.142C468.791 237.834 471.099 240.142 473.984 242.065C476.868 243.796 480.138 245.142 483.791 246.103C487.445 247.065 491.003 247.642 494.464 247.834C501.003 248.219 507.253 247.738 513.214 246.392C519.176 244.853 525.33 243.123 531.676 241.2ZM519.272 185.238C515.618 181.007 511.772 177.931 507.734 176.008C504.657 174.661 501.388 174.084 497.926 174.277C494.657 174.277 491.484 174.758 488.407 175.719C482.83 177.065 478.118 179.95 474.272 184.373C473.888 184.757 473.215 185.719 472.253 187.257C471.291 188.604 470.33 190.046 469.368 191.584C468.599 193.123 468.022 194.565 467.638 195.911C467.253 197.257 467.445 197.931 468.215 197.931H524.753C524.561 195.238 524.08 193.027 523.311 191.296C522.541 189.373 521.195 187.354 519.272 185.238ZM566.821 178.604C566.821 176.296 566.821 173.7 566.821 170.815C566.821 167.738 566.917 164.661 567.109 161.584C567.301 158.315 567.59 155.238 567.975 152.354C568.551 149.277 569.321 146.585 570.282 144.277C571.821 140.815 574.225 138.508 577.494 137.354C580.763 136.008 584.321 135.431 588.167 135.623C592.205 135.623 595.378 136.296 597.686 137.642C599.994 138.988 601.724 140.815 602.878 143.123C604.032 145.238 604.705 147.738 604.898 150.623C605.282 153.315 605.474 156.2 605.474 159.277C607.205 156.2 609.513 153.7 612.398 151.777C615.474 149.854 618.551 148.315 621.628 147.161C624.705 146.008 627.494 145.238 629.994 144.854C632.494 144.277 633.936 143.988 634.321 143.988C639.128 143.604 643.455 143.508 647.301 143.7C651.34 143.892 655.763 144.758 660.57 146.296C663.647 147.45 666.82 149.085 670.09 151.2C673.359 153.123 676.243 155.431 678.743 158.123C681.243 160.815 682.878 163.796 683.647 167.065C684.609 170.142 684.224 173.411 682.493 176.873C679.801 181.681 676.82 184.084 673.551 184.084C670.282 183.892 666.724 183.315 662.878 182.354C660.763 181.969 658.263 181.104 655.378 179.758C652.494 178.411 649.994 177.546 647.878 177.161C641.34 176.2 635.571 176.681 630.571 178.604C625.571 180.527 621.244 182.834 617.59 185.527C613.359 188.796 609.705 192.546 606.628 196.777V238.315C606.628 243.507 606.532 248.892 606.34 254.469C606.34 260.046 605.571 265.142 604.032 269.757C602.686 274.18 600.282 277.834 596.821 280.719C593.551 283.411 588.744 284.565 582.398 284.18C578.936 283.988 575.859 282.353 573.167 279.276C570.475 276.007 568.84 272.834 568.263 269.757C567.878 266.873 567.59 263.411 567.398 259.373C567.205 255.334 567.013 251.103 566.821 246.68C566.821 242.257 566.821 237.834 566.821 233.411C566.821 228.796 566.821 224.565 566.821 220.719V178.604ZM953.568 159.277C959.337 156.392 965.395 154.373 971.741 153.219C978.087 151.873 984.337 151.585 990.491 152.354C996.837 152.931 1002.89 154.565 1008.66 157.258C1014.43 159.758 1019.82 163.411 1024.82 168.219C1029.82 173.219 1033.66 178.7 1036.36 184.661C1039.05 190.623 1040.97 197.257 1042.13 204.565C1042.89 209.565 1044.14 214.18 1045.88 218.411C1047.61 222.642 1049.43 226.873 1051.36 231.104C1053.47 235.334 1055.39 239.565 1057.13 243.796C1059.05 248.027 1060.59 252.45 1061.74 257.065C1062.7 261.488 1062.32 265.815 1060.59 270.046C1059.05 274.084 1055.78 276.584 1050.78 277.546C1047.89 278.123 1045.11 277.93 1042.41 276.969C1039.91 275.815 1037.61 274.276 1035.49 272.353C1033.38 270.238 1031.45 268.026 1029.72 265.719C1028.18 263.219 1026.74 260.911 1025.39 258.796C1020.97 264.565 1016.16 269.084 1010.97 272.353C1005.78 275.43 999.529 277.45 992.221 278.411C986.068 279.18 980.202 279.373 974.625 278.988C969.048 278.603 963.087 277.546 956.741 275.815C948.471 273.7 941.645 270.046 936.26 264.853C931.068 259.469 927.029 253.315 924.145 246.392C921.452 239.277 920.01 231.68 919.818 223.604C919.625 215.527 920.587 207.546 922.702 199.661C925.395 189.277 929.433 180.815 934.818 174.277C940.202 167.738 946.452 162.738 953.568 159.277ZM960.779 193.027C958.087 195.719 955.971 198.892 954.433 202.546C952.895 206.2 951.933 210.046 951.548 214.084C951.356 218.123 951.741 222.161 952.702 226.2C953.664 230.238 955.202 233.796 957.318 236.873C959.241 239.565 962.51 241.873 967.125 243.796C971.741 245.527 976.548 246.584 981.548 246.969C987.318 247.353 992.318 245.815 996.548 242.353C1000.97 238.892 1004.24 234.565 1006.36 229.373C1008.66 223.988 1009.72 218.315 1009.53 212.354C1009.34 206.2 1007.7 200.623 1004.63 195.623C1002.32 191.969 999.241 189.277 995.394 187.546C991.741 185.815 987.798 184.95 983.568 184.95C979.337 184.757 975.106 185.431 970.875 186.969C966.837 188.315 963.471 190.334 960.779 193.027ZM1112.57 257.642C1112.37 258.603 1112.18 259.565 1111.99 260.527C1111.99 261.296 1111.99 262.161 1111.99 263.123L1110.26 269.18C1109.87 269.95 1109.59 270.43 1109.39 270.623L1108.53 272.353C1107.57 274.469 1105.84 276.2 1103.34 277.546C1098.72 279.853 1093.82 280.43 1088.62 279.276C1085.35 278.892 1082.76 277.93 1080.84 276.392C1078.91 275.046 1077.57 273.411 1076.8 271.488C1076.03 269.565 1075.45 267.642 1075.07 265.719C1074.49 263.796 1074.2 262.065 1074.2 260.527V98.9885C1074.2 97.6424 1074.2 96.4885 1074.2 95.527C1074.39 94.3731 1074.59 93.3154 1074.78 92.3539C1074.97 91.0078 1075.16 89.8539 1075.35 88.8924C1075.74 87.9308 1076.12 86.8732 1076.51 85.7193C1077.09 83.7962 1078.14 82.2578 1079.68 81.1039C1081.99 79.3732 1084.2 78.4116 1086.32 78.2193C1087.66 77.8347 1088.91 77.6424 1090.07 77.6424C1091.22 77.4501 1092.57 77.3539 1094.1 77.3539C1096.8 77.3539 1099.87 78.1232 1103.34 79.6616C1106.03 81.2001 1107.95 83.3155 1109.1 86.0078C1111.03 89.8539 1111.99 93.4116 1111.99 96.6808C1112.18 98.6039 1112.28 101.488 1112.28 105.335C1112.47 109.181 1112.57 112.065 1112.57 113.988V115.142C1112.95 121.296 1113.14 127.258 1113.14 133.027C1113.14 138.604 1113.05 144.758 1112.85 151.488C1112.85 158.027 1112.76 164.373 1112.57 170.527C1112.57 176.488 1112.57 182.45 1112.57 188.411V248.988C1112.57 249.757 1112.57 250.527 1112.57 251.296C1112.76 251.873 1112.85 252.546 1112.85 253.315C1112.85 255.238 1112.76 256.68 1112.57 257.642ZM1175.4 257.642C1175.2 258.603 1175.01 259.565 1174.82 260.527C1174.82 261.296 1174.82 262.161 1174.82 263.123L1173.09 269.18C1172.7 269.95 1172.42 270.43 1172.22 270.623L1171.36 272.353C1170.4 274.469 1168.67 276.2 1166.17 277.546C1161.55 279.853 1156.65 280.43 1151.45 279.276C1148.18 278.892 1145.59 277.93 1143.67 276.392C1141.74 275.046 1140.4 273.411 1139.63 271.488C1138.86 269.565 1138.28 267.642 1137.9 265.719C1137.32 263.796 1137.03 262.065 1137.03 260.527V98.9885C1137.03 97.6424 1137.03 96.4885 1137.03 95.527C1137.22 94.3731 1137.42 93.3154 1137.61 92.3539C1137.8 91.0078 1137.99 89.8539 1138.18 88.8924C1138.57 87.9308 1138.95 86.8732 1139.34 85.7193C1139.92 83.7962 1140.97 82.2578 1142.51 81.1039C1144.82 79.3732 1147.03 78.4116 1149.15 78.2193C1150.49 77.8347 1151.74 77.6424 1152.9 77.6424C1154.05 77.4501 1155.4 77.3539 1156.93 77.3539C1159.63 77.3539 1162.7 78.1232 1166.17 79.6616C1168.86 81.2001 1170.78 83.3155 1171.93 86.0078C1173.86 89.8539 1174.82 93.4116 1174.82 96.6808C1175.01 98.6039 1175.11 101.488 1175.11 105.335C1175.3 109.181 1175.4 112.065 1175.4 113.988V115.142C1175.78 121.296 1175.97 127.258 1175.97 133.027C1175.97 138.604 1175.88 144.758 1175.68 151.488C1175.68 158.027 1175.59 164.373 1175.4 170.527C1175.4 176.488 1175.4 182.45 1175.4 188.411V248.988C1175.4 249.757 1175.4 250.527 1175.4 251.296C1175.59 251.873 1175.68 252.546 1175.68 253.315C1175.68 255.238 1175.59 256.68 1175.4 257.642ZM287.999 497.892C288.191 501.738 288.287 505.777 288.287 510.007C288.287 514.046 288.191 517.796 287.999 521.257C287.806 526.45 287.518 531.257 287.133 535.68C286.749 539.911 285.979 543.565 284.826 546.642C283.672 549.526 281.845 551.738 279.345 553.276C277.037 554.623 273.768 555.007 269.537 554.43C265.114 553.853 261.941 551.738 260.018 548.084C258.095 544.43 256.749 540.296 255.98 535.68C255.403 530.873 255.21 526.065 255.403 521.257C255.595 516.45 255.595 512.7 255.403 510.007C255.21 505.777 255.018 500.969 254.826 495.584C254.826 490.007 254.249 484.815 253.095 480.007C252.133 475.007 250.403 470.777 247.903 467.315C245.403 463.854 241.653 462.027 236.653 461.834C230.307 461.45 225.403 461.931 221.941 463.277C218.672 464.623 216.268 466.642 214.73 469.334C213.191 471.834 212.23 474.911 211.845 478.565C211.653 482.219 211.268 486.161 210.691 490.392L210.403 501.642V522.7C210.403 526.161 210.307 529.815 210.114 533.661C210.114 537.315 209.537 540.68 208.384 543.757C207.23 546.834 205.403 549.43 202.903 551.546C200.595 553.661 197.134 554.719 192.518 554.719C186.749 554.719 182.422 552.892 179.537 549.238C176.845 545.392 175.499 540.68 175.499 535.103V369.239C175.499 368.085 175.499 367.027 175.499 366.065C175.691 364.912 175.884 363.758 176.076 362.604C176.461 361.45 176.749 360.392 176.941 359.431C177.134 358.277 177.422 357.219 177.807 356.258C178.384 354.335 179.345 352.892 180.691 351.931C181.653 350.969 182.614 350.2 183.576 349.623C184.537 349.046 185.595 348.662 186.749 348.469C187.711 348.277 188.768 348.181 189.922 348.181C191.076 347.989 192.23 347.892 193.384 347.892C196.268 347.892 199.057 348.758 201.749 350.489C202.903 351.258 203.961 352.123 204.922 353.085C205.884 353.854 206.653 355.008 207.23 356.546C208.768 360.2 209.537 363.662 209.537 366.931C209.73 367.892 209.826 369.335 209.826 371.258C210.018 372.989 210.114 374.815 210.114 376.738C210.114 378.662 210.114 380.585 210.114 382.508C210.307 384.238 210.403 385.585 210.403 386.546V387.988C210.595 394.142 210.691 400.392 210.691 406.738C210.691 413.085 210.691 419.527 210.691 426.065V430.969C218.768 428.277 227.23 427.027 236.076 427.219C244.922 427.219 252.807 428.95 259.73 432.411C266.845 436.065 272.23 440.2 275.883 444.815C279.73 449.431 282.518 454.527 284.249 460.104C285.979 465.681 286.941 471.642 287.133 477.988C287.518 484.334 287.806 490.969 287.999 497.892ZM336.951 424.335C343.298 421.258 349.932 419.046 356.855 417.7C363.778 416.354 370.605 416.065 377.336 416.835C384.259 417.604 390.894 419.431 397.24 422.315C403.778 425.2 409.74 429.238 415.124 434.431C419.547 438.854 423.393 444.238 426.663 450.584C429.932 456.738 432.336 462.796 433.874 468.757C437.143 479.334 437.624 490.007 435.317 500.777C433.009 511.546 429.067 521.546 423.49 530.777C420.797 535.007 417.432 538.853 413.393 542.315C409.547 545.584 405.413 548.276 400.99 550.392C395.22 553.084 388.97 554.911 382.24 555.873C375.509 557.026 368.971 557.315 362.624 556.738C351.086 556.161 340.894 553.276 332.048 548.084C323.394 542.892 316.375 536.257 310.99 528.18C305.798 520.103 302.336 510.969 300.605 500.777C299.067 490.392 299.74 479.815 302.625 469.046C305.701 457.507 310.125 448.181 315.894 441.065C321.855 433.758 328.874 428.181 336.951 424.335ZM345.605 462.988C342.721 465.681 340.509 469.046 338.971 473.084C337.432 477.123 336.471 481.354 336.086 485.777C335.701 490.007 335.99 494.334 336.951 498.757C338.105 502.988 339.836 506.834 342.144 510.296C344.067 513.18 347.528 515.584 352.528 517.507C357.528 519.43 362.721 520.584 368.105 520.969C374.259 521.353 379.644 519.719 384.259 516.065C388.874 512.219 392.336 507.507 394.644 501.93C397.144 496.354 398.297 490.296 398.105 483.757C397.913 477.219 396.182 471.257 392.913 465.873C390.605 462.027 387.336 459.238 383.105 457.507C379.067 455.584 374.74 454.623 370.124 454.623C365.701 454.431 361.278 455.104 356.855 456.642C352.432 457.988 348.682 460.104 345.605 462.988ZM616.38 424.911C618.11 427.411 618.687 431.354 618.11 436.738C617.726 441.931 616.764 447.604 615.226 453.758C613.687 459.719 611.86 465.681 609.745 471.642C607.63 477.411 605.899 482.219 604.553 486.065C601.284 494.911 598.399 503.18 595.899 510.873C593.399 518.565 590.418 527.027 586.957 536.257C585.803 538.95 584.649 541.642 583.495 544.334C582.534 547.026 581.284 549.43 579.745 551.546C578.399 553.661 576.668 555.392 574.553 556.738C572.63 558.084 570.226 558.757 567.341 558.757C564.072 558.757 561.188 557.603 558.688 555.296C556.38 552.988 554.361 550.103 552.63 546.642C551.091 543.18 549.745 539.526 548.591 535.68C547.438 531.834 546.476 528.469 545.707 525.584C543.207 517.123 540.995 509.43 539.072 502.507C537.149 495.392 535.418 489.046 533.88 483.469C532.149 489.046 530.418 495.104 528.688 501.642C526.957 508.18 524.745 515.584 522.053 523.853C521.284 526.738 520.322 530.296 519.168 534.527C518.015 538.565 516.572 542.411 514.841 546.065C513.303 549.719 511.284 552.796 508.784 555.296C506.476 557.988 503.688 559.142 500.418 558.757C495.803 558.565 491.765 556.738 488.303 553.276C485.034 549.623 482.149 545.296 479.649 540.296C477.342 535.296 475.322 530.103 473.592 524.719C471.861 519.334 470.419 514.623 469.265 510.584C467.726 505.392 465.899 499.623 463.784 493.277C461.669 486.93 459.553 480.488 457.438 473.95C455.515 467.219 453.688 460.584 451.957 454.046C450.226 447.315 449.072 441.161 448.496 435.584C448.111 431.931 448.784 428.565 450.515 425.488C452.438 422.411 454.842 420.296 457.726 419.142C460.803 417.796 464.072 417.508 467.534 418.277C471.188 419.046 474.457 421.354 477.342 425.2C478.88 427.123 480.226 429.527 481.38 432.411C482.726 435.296 483.88 438.469 484.842 441.931C485.803 445.2 486.765 448.565 487.726 452.027C488.688 455.488 489.649 458.854 490.611 462.123C492.726 469.431 494.457 475.2 495.803 479.431C497.342 483.469 498.88 487.7 500.418 492.123C501.765 487.7 503.111 483.469 504.457 479.431C505.995 475.2 507.822 469.431 509.938 462.123C510.707 459.815 511.572 457.219 512.534 454.334C513.688 451.258 514.841 448.373 515.995 445.681C517.341 442.988 518.784 440.488 520.322 438.181C522.053 435.681 523.88 433.854 525.803 432.7C530.034 429.815 533.88 429.142 537.341 430.681C540.803 432.027 543.784 434.431 546.284 437.892C548.784 441.354 550.899 445.392 552.63 450.008C554.553 454.431 556.091 458.469 557.245 462.123C558.399 465.969 559.457 469.334 560.418 472.219C561.38 474.911 562.245 477.411 563.014 479.719C563.784 482.027 564.457 484.238 565.034 486.354C565.803 488.469 566.572 490.68 567.341 492.988C568.111 490.68 568.784 488.469 569.361 486.354C570.13 484.238 570.899 482.027 571.668 479.719C572.437 477.411 573.303 474.911 574.264 472.219C575.226 469.334 576.284 465.969 577.437 462.123C578.207 459.623 578.976 456.738 579.745 453.469C580.707 450.2 581.668 446.931 582.63 443.661C583.591 440.2 584.553 436.931 585.514 433.854C586.668 430.777 587.918 428.181 589.264 426.065C590.611 423.95 592.437 422.219 594.745 420.873C597.053 419.335 599.457 418.469 601.957 418.277C604.457 417.892 606.957 418.181 609.457 419.142C612.149 420.104 614.457 422.027 616.38 424.911ZM714.562 353.085C718.216 352.123 721.389 352.027 724.081 352.796C726.966 353.373 729.37 354.623 731.293 356.546C733.408 358.469 734.947 360.873 735.908 363.758C737.062 366.642 737.639 369.815 737.639 373.277C737.831 382.892 737.831 390.392 737.639 395.777C737.639 401.162 737.639 405.873 737.639 409.911V498.469C737.639 508.853 737.639 517.507 737.639 524.43C737.639 531.353 737.254 537.026 736.485 541.45C735.908 545.68 734.754 548.853 733.024 550.969C731.485 553.084 729.081 554.526 725.812 555.296C722.543 556.257 718.216 556.738 712.831 556.738C707.639 556.738 701.101 556.738 693.216 556.738C672.447 556.738 656.005 551.834 643.889 542.026C631.966 532.219 625.62 516.642 624.851 495.296C624.466 486.065 625.62 477.604 628.312 469.911C631.005 462.219 634.947 455.681 640.139 450.296C645.524 444.719 652.062 440.488 659.755 437.604C667.639 434.527 676.582 433.084 686.582 433.277H702.447V381.642C702.447 378.565 702.447 375.585 702.447 372.7C702.447 369.623 702.735 366.835 703.312 364.335C703.889 361.642 705.043 359.335 706.774 357.412C708.505 355.489 711.101 354.046 714.562 353.085ZM664.37 513.18C668.409 518.757 675.716 521.834 686.293 522.411C688.408 522.603 690.428 522.7 692.351 522.7C694.274 522.507 696.005 522.219 697.543 521.834C699.274 521.642 700.908 521.353 702.447 520.969V467.604C695.716 466.45 689.562 465.777 683.985 465.584C678.601 465.2 673.216 467.123 667.832 471.354C664.947 473.661 662.735 476.642 661.197 480.296C659.659 483.757 658.793 487.507 658.601 491.546C658.409 495.392 658.793 499.238 659.755 503.084C660.716 506.93 662.255 510.296 664.37 513.18ZM786.578 424.335C792.924 421.258 799.559 419.046 806.482 417.7C813.405 416.354 820.232 416.065 826.963 416.835C833.886 417.604 840.52 419.431 846.867 422.315C853.405 425.2 859.366 429.238 864.751 434.431C869.174 438.854 873.02 444.238 876.29 450.584C879.559 456.738 881.963 462.796 883.501 468.757C886.77 479.334 887.251 490.007 884.943 500.777C882.636 511.546 878.693 521.546 873.116 530.777C870.424 535.007 867.059 538.853 863.02 542.315C859.174 545.584 855.04 548.276 850.617 550.392C844.847 553.084 838.597 554.911 831.867 555.873C825.136 557.026 818.597 557.315 812.251 556.738C800.713 556.161 790.521 553.276 781.674 548.084C773.021 542.892 766.001 536.257 760.617 528.18C755.424 520.103 751.963 510.969 750.232 500.777C748.694 490.392 749.367 479.815 752.251 469.046C755.328 457.507 759.751 448.181 765.521 441.065C771.482 433.758 778.501 428.181 786.578 424.335ZM795.232 462.988C792.347 465.681 790.136 469.046 788.597 473.084C787.059 477.123 786.097 481.354 785.713 485.777C785.328 490.007 785.617 494.334 786.578 498.757C787.732 502.988 789.463 506.834 791.771 510.296C793.694 513.18 797.155 515.584 802.155 517.507C807.155 519.43 812.347 520.584 817.732 520.969C823.886 521.353 829.27 519.719 833.886 516.065C838.501 512.219 841.963 507.507 844.27 501.93C846.77 496.354 847.924 490.296 847.732 483.757C847.54 477.219 845.809 471.257 842.54 465.873C840.232 462.027 836.963 459.238 832.732 457.507C828.693 455.584 824.367 454.623 819.751 454.623C815.328 454.431 810.905 455.104 806.482 456.642C802.059 457.988 798.309 460.104 795.232 462.988ZM1066.01 424.911C1067.74 427.411 1068.31 431.354 1067.74 436.738C1067.35 441.931 1066.39 447.604 1064.85 453.758C1063.31 459.719 1061.49 465.681 1059.37 471.642C1057.26 477.411 1055.53 482.219 1054.18 486.065C1050.91 494.911 1048.03 503.18 1045.53 510.873C1043.03 518.565 1040.05 527.027 1036.58 536.257C1035.43 538.95 1034.28 541.642 1033.12 544.334C1032.16 547.026 1030.91 549.43 1029.37 551.546C1028.03 553.661 1026.3 555.392 1024.18 556.738C1022.26 558.084 1019.85 558.757 1016.97 558.757C1013.7 558.757 1010.81 557.603 1008.31 555.296C1006.01 552.988 1003.99 550.103 1002.26 546.642C1000.72 543.18 999.372 539.526 998.218 535.68C997.064 531.834 996.103 528.469 995.334 525.584C992.834 517.123 990.622 509.43 988.699 502.507C986.776 495.392 985.045 489.046 983.507 483.469C981.776 489.046 980.045 495.104 978.314 501.642C976.584 508.18 974.372 515.584 971.68 523.853C970.911 526.738 969.949 530.296 968.795 534.527C967.641 538.565 966.199 542.411 964.468 546.065C962.93 549.719 960.911 552.796 958.411 555.296C956.103 557.988 953.315 559.142 950.045 558.757C945.43 558.565 941.391 556.738 937.93 553.276C934.661 549.623 931.776 545.296 929.276 540.296C926.968 535.296 924.949 530.103 923.218 524.719C921.488 519.334 920.045 514.623 918.892 510.584C917.353 505.392 915.526 499.623 913.411 493.277C911.295 486.93 909.18 480.488 907.065 473.95C905.142 467.219 903.315 460.584 901.584 454.046C899.853 447.315 898.699 441.161 898.122 435.584C897.738 431.931 898.411 428.565 900.142 425.488C902.065 422.411 904.468 420.296 907.353 419.142C910.43 417.796 913.699 417.508 917.161 418.277C920.815 419.046 924.084 421.354 926.968 425.2C928.507 427.123 929.853 429.527 931.007 432.411C932.353 435.296 933.507 438.469 934.468 441.931C935.43 445.2 936.391 448.565 937.353 452.027C938.315 455.488 939.276 458.854 940.238 462.123C942.353 469.431 944.084 475.2 945.43 479.431C946.968 483.469 948.507 487.7 950.045 492.123C951.391 487.7 952.738 483.469 954.084 479.431C955.622 475.2 957.449 469.431 959.564 462.123C960.334 459.815 961.199 457.219 962.161 454.334C963.314 451.258 964.468 448.373 965.622 445.681C966.968 442.988 968.411 440.488 969.949 438.181C971.68 435.681 973.507 433.854 975.43 432.7C979.661 429.815 983.507 429.142 986.968 430.681C990.43 432.027 993.411 434.431 995.911 437.892C998.411 441.354 1000.53 445.392 1002.26 450.008C1004.18 454.431 1005.72 458.469 1006.87 462.123C1008.03 465.969 1009.08 469.334 1010.05 472.219C1011.01 474.911 1011.87 477.411 1012.64 479.719C1013.41 482.027 1014.08 484.238 1014.66 486.354C1015.43 488.469 1016.2 490.68 1016.97 492.988C1017.74 490.68 1018.41 488.469 1018.99 486.354C1019.76 484.238 1020.53 482.027 1021.3 479.719C1022.06 477.411 1022.93 474.911 1023.89 472.219C1024.85 469.334 1025.91 465.969 1027.06 462.123C1027.83 459.623 1028.6 456.738 1029.37 453.469C1030.33 450.2 1031.3 446.931 1032.26 443.661C1033.22 440.2 1034.18 436.931 1035.14 433.854C1036.3 430.777 1037.55 428.181 1038.89 426.065C1040.24 423.95 1042.06 422.219 1044.37 420.873C1046.68 419.335 1049.08 418.469 1051.58 418.277C1054.08 417.892 1056.58 418.181 1059.08 419.142C1061.78 420.104 1064.08 422.027 1066.01 424.911ZM1080.11 451.738C1080.11 447.315 1080.02 442.604 1079.82 437.604C1079.82 432.604 1080.69 428.085 1082.42 424.046C1083.96 420.392 1086.46 417.796 1089.92 416.258C1093.57 414.527 1097.13 414.142 1100.59 415.104C1104.05 415.681 1106.75 416.738 1108.67 418.277C1110.59 419.815 1111.94 421.642 1112.71 423.758C1113.67 425.681 1114.25 427.988 1114.44 430.681C1114.63 433.181 1114.82 435.681 1115.02 438.181C1116.94 434.719 1119.34 431.931 1122.23 429.815C1125.11 427.7 1128.09 425.969 1131.17 424.623C1134.25 423.277 1137.13 422.315 1139.82 421.738C1142.71 421.161 1144.92 420.873 1146.46 420.873C1153.77 420.873 1160.98 422.508 1168.09 425.777C1175.4 428.854 1181.46 433.277 1186.27 439.046C1188.96 442.508 1190.98 446.161 1192.32 450.008C1193.86 453.661 1194.92 457.507 1195.5 461.546C1196.27 465.584 1196.75 469.719 1196.94 473.95C1197.13 477.988 1197.32 482.123 1197.52 486.354C1198.48 498.661 1198.48 510.873 1197.52 522.988C1197.32 525.488 1197.23 528.373 1197.23 531.642C1197.23 534.911 1196.94 538.18 1196.36 541.45C1195.98 544.526 1195.11 547.315 1193.77 549.815C1192.61 552.123 1190.59 553.565 1187.71 554.142C1183.67 555.103 1180.3 555.296 1177.61 554.719C1175.11 554.334 1173.09 553.469 1171.55 552.123C1170.02 550.776 1168.86 549.046 1168.09 546.93C1167.32 544.815 1166.65 542.411 1166.07 539.719C1165.69 537.603 1165.3 535.2 1164.92 532.507C1164.73 529.623 1164.53 526.738 1164.34 523.853C1164.34 520.969 1164.25 518.18 1164.05 515.488C1164.05 512.603 1164.05 510.007 1164.05 507.7C1164.05 504.046 1163.96 500.007 1163.77 495.584C1163.57 491.161 1163.57 487.027 1163.77 483.18C1163.77 474.142 1161.36 467.315 1156.55 462.7C1151.94 457.892 1145.59 455.873 1137.52 456.642C1131.36 457.411 1125.98 459.911 1121.36 464.142C1116.75 468.181 1114.53 473.469 1114.73 480.007C1114.73 482.507 1114.73 484.815 1114.73 486.93C1114.73 489.046 1114.63 491.161 1114.44 493.277C1114.44 495.392 1114.44 497.7 1114.44 500.2C1114.44 502.7 1114.44 505.488 1114.44 508.565C1114.44 514.911 1114.44 521.642 1114.44 528.757C1114.44 535.68 1113.57 541.353 1111.84 545.776C1110.3 550.392 1107.71 553.565 1104.05 555.296C1100.4 557.026 1096.07 556.546 1091.07 553.853C1088.96 552.7 1087.23 551.161 1085.88 549.238C1084.73 547.123 1083.77 544.911 1083 542.603C1082.42 540.296 1082.03 537.988 1081.84 535.68C1081.65 533.18 1081.46 530.873 1081.27 528.757C1080.69 522.411 1080.3 516.546 1080.11 511.161C1080.11 505.584 1080.11 499.623 1080.11 493.277V451.738Z" fill="#904600"/>
<path d="M1581.21 440.031C1614.37 457.007 1651.53 469.318 1688.61 473.806C1689.82 508.019 1684.42 539.627 1675.54 565.057C1637 571.873 1595.95 565.654 1559.32 544.508L1557.38 543.369C1557.16 543.238 1556.94 543.104 1556.72 542.972C1553.63 504.995 1562.6 465.156 1581.21 440.031ZM1774.77 280.765C1822.28 334.337 1832.89 414.004 1795.88 479.728L1794.94 481.373C1778.79 509.349 1756.04 531.067 1729.82 545.725C1742.93 482.553 1737.69 402.775 1694.89 328.492C1725.5 317.475 1754.06 301.84 1774.77 280.765ZM1478.26 352.899C1489.41 370.839 1505.06 387.446 1523.21 402.342L1525.45 404.165H1525.45C1530.24 408.008 1535.21 411.748 1540.35 415.375C1522.82 440.048 1513.05 470.563 1509.76 501.59C1477.06 459.913 1465.08 404.84 1478.26 352.899ZM1621.83 224.229C1623.86 239.405 1629.48 253.695 1637.52 266.261L1638.02 267.039C1643.65 275.692 1650.42 283.617 1658.05 290.693C1656.76 291.052 1655.48 291.402 1654.19 291.742L1652.44 292.199H1652.43L1636.76 296.225L1618.86 300.821L1629.67 315.807L1639.14 328.935L1639.14 328.936C1661.52 359.951 1675.19 392.831 1682.38 425.041C1637.24 417.008 1590.58 395.283 1556.88 368.732L1555.08 367.305C1535.05 351.204 1520.65 334.044 1513.52 318.993L1513.19 318.278L1513.19 318.277C1507.69 306.348 1506.88 297.236 1509.27 289.413C1537.47 252.915 1578.28 230.295 1621.83 224.229ZM1669.88 224.288C1690.66 227.254 1711.26 234.093 1730.66 245.1L1731.8 245.755C1734.04 247.048 1736.25 248.392 1738.43 249.782C1730.78 256.859 1721.1 263.676 1709.79 269.921C1696.75 262.883 1685.74 253.138 1678.44 242.426L1677.66 241.243C1674.01 235.646 1671.41 229.979 1669.88 224.288ZM1333.93 237.344L1327.91 238.669L1329.17 237.128L1333.93 237.344ZM1390.73 198.823L1361.66 215.303L1334.33 230.801L1364.57 193.698L1371.74 184.897L1390.73 198.823ZM1332.45 147.354L1320.17 147.075L1331.25 155.203L1317.59 146.235L1332.45 147.354ZM1404.31 117.026L1411.81 149.165L1397.28 148.834L1398.08 139.828L1401.26 103.938L1404.31 117.026ZM1438.51 111.569L1422.52 103.04L1402.29 92.2567L1405.38 57.4168L1438.51 111.569Z" fill="#FF7B00" stroke="#904600" stroke-width="25.2083"/>
</svg>
